<?xml version="1.0" standalone="no"?>
<!DOCTYPE svg PUBLIC "-//W3C//DTD SVG 20010904//EN"
 "http://www.w3.org/TR/2001/REC-SVG-20010904/DTD/svg10.dtd">
<svg version="1.0" xmlns="http://www.w3.org/2000/svg"
 width="478.000000pt" height="478.000000pt" viewBox="0 0 478.000000 478.000000"
 preserveAspectRatio="xMidYMid meet">
<metadata>
Created by potrace 1.14, written by Peter Selinger 2001-2017
</metadata>
<g transform="translate(0.000000,478.000000) scale(0.100000,-0.100000)"
fill="#000000" stroke="none">
<path d="M1909 2888 c-1 -13 -1 -26 0 -30 0 -5 -3 -8 -9 -8 -5 0 -10 6 -10 13
0 8 -7 14 -14 14 -11 0 -13 -5 -5 -19 7 -14 7 -18 -3 -16 -8 2 -13 -6 -12 -19
1 -14 -3 -20 -10 -16 -6 3 -8 3 -4 -2 4 -4 3 -15 -2 -25 -5 -10 -6 -20 -3 -24
12 -12 12 -67 1 -60 -7 4 -8 2 -4 -5 4 -6 11 -9 16 -6 4 3 7 -3 6 -12 -2 -10
2 -22 8 -26 7 -6 6 -7 -4 -4 -8 2 -14 10 -12 16 1 6 -3 11 -8 11 -12 0 -13
-13 -2 -24 12 -12 9 -30 -8 -44 -8 -8 -9 -10 -2 -7 8 4 19 -1 27 -11 14 -20
11 -34 -8 -34 -7 0 -6 4 3 11 12 8 12 10 1 7 -15 -4 -23 -46 -10 -54 4 -2 6
-13 4 -24 -2 -11 1 -23 7 -26 7 -5 8 -2 3 6 -5 9 -4 11 4 6 6 -4 18 -4 24 1 7
4 4 0 -6 -9 -11 -10 -25 -18 -33 -18 -18 0 -17 -10 2 -35 13 -18 13 -20 -3
-27 -11 -5 -4 -6 17 -3 25 4 31 2 20 -5 -8 -5 -24 -10 -35 -10 -17 0 -17 -2
-5 -10 12 -8 13 -12 2 -19 -11 -7 -10 -9 3 -14 10 -5 14 -3 9 5 -5 7 -3 8 6 3
10 -6 7 -13 -11 -27 -17 -14 -19 -18 -6 -14 10 3 15 2 12 -3 -3 -6 2 -14 11
-19 11 -6 13 -11 5 -16 -6 -4 -11 -3 -11 3 0 6 -7 8 -15 4 -13 -5 -13 -8 5
-20 11 -8 26 -11 33 -8 6 4 5 1 -3 -7 -18 -15 -20 -44 -3 -41 12 3 12 -22 -1
-34 -4 -4 -6 -1 -4 7 2 8 -2 14 -8 13 -6 -1 -10 10 -10 25 1 15 -3 27 -9 27
-13 0 -16 -23 -4 -31 6 -4 6 -11 -1 -19 -8 -10 -8 -15 1 -21 8 -5 9 -3 4 6 -6
9 -4 11 5 5 10 -6 10 -11 -4 -20 -15 -11 -15 -13 -1 -19 11 -4 14 -2 9 7 -6 8
-3 8 9 -1 9 -8 22 -10 29 -6 9 6 9 3 -1 -10 -8 -9 -17 -13 -20 -9 -3 5 -12 9
-18 8 -16 0 -17 -20 -1 -20 6 0 12 -8 14 -18 1 -9 -2 -15 -7 -11 -5 3 -7 10
-4 15 3 5 -1 6 -10 2 -13 -5 -14 -7 -3 -14 11 -7 10 -11 -2 -19 -9 -5 -10 -10
-3 -10 13 0 12 -18 -1 -39 -6 -10 -5 -12 2 -7 8 4 12 0 12 -11 0 -10 3 -14 8
-8 11 16 38 11 34 -5 -3 -10 3 -9 17 4 14 13 21 15 21 6 0 -7 9 -1 21 14 11
15 31 26 44 26 13 0 24 7 26 18 3 14 3 815 0 860 -1 8 -19 12 -56 12 -50 0
-55 -2 -56 -22z m-52 -112 c-3 -8 1 -20 9 -27 8 -6 12 -14 9 -17 -9 -9 -33 31
-28 45 3 7 7 13 10 13 3 0 3 -6 0 -14z m34 -13 c13 -16 12 -17 -3 -4 -17 13
-22 21 -14 21 2 0 10 -8 17 -17z m-4 -50 c-14 -14 -19 -15 -29 -4 -11 10 -10
11 3 6 10 -4 20 -2 24 4 3 6 9 11 13 11 3 0 -1 -8 -11 -17z m-20 -103 c-1 -21
-10 -18 -13 5 -1 8 2 15 6 15 5 0 8 -9 7 -20z m23 -85 c14 -19 14 -19 -2 -6
-10 7 -18 18 -18 24 0 6 1 8 3 6 1 -2 9 -13 17 -24z m-35 5 c-3 -6 1 -13 9
-16 9 -3 13 -10 10 -16 -3 -5 -12 -1 -19 9 -12 16 -11 33 1 33 3 0 2 -5 -1
-10z m20 -102 c5 4 5 1 1 -6 -6 -10 -11 -10 -22 -1 -8 6 -14 14 -14 16 0 3 6
0 13 -6 8 -6 18 -7 22 -3z m15 -143 c14 -19 14 -19 -2 -6 -10 7 -18 18 -18 24
0 6 1 8 3 6 1 -2 9 -13 17 -24z m-10 -245 c8 -5 11 -10 5 -10 -5 0 -17 5 -25
10 -8 5 -10 10 -5 10 6 0 17 -5 25 -10z m70 -35 c-7 -9 -15 -13 -17 -11 -7 7
7 26 19 26 6 0 6 -6 -2 -15z m-46 -12 c4 -9 2 -11 -7 -6 -6 4 -18 8 -25 9 -25
4 -23 12 2 12 14 0 27 -7 30 -15z"/>
<path d="M1836 2848 c3 -5 10 -6 15 -3 13 9 11 12 -6 12 -8 0 -12 -4 -9 -9z"/>
<path d="M1825 2820 c-3 -6 1 -7 9 -4 18 7 21 14 7 14 -6 0 -13 -4 -16 -10z"/>
<path d="M3790 2800 c-7 -12 -16 -18 -23 -13 -7 4 -5 -2 3 -12 14 -17 13 -18
-2 -12 -10 3 -18 2 -18 -2 0 -5 5 -11 11 -13 9 -3 9 -10 0 -26 -7 -13 -16 -20
-22 -17 -5 4 -9 1 -9 -4 0 -6 5 -11 11 -11 5 0 7 -5 4 -10 -4 -6 -11 -7 -17
-4 -7 4 -8 2 -4 -5 9 -14 -13 -83 -24 -76 -4 3 -6 -4 -3 -15 3 -11 0 -26 -6
-33 -6 -8 -7 -18 -3 -22 4 -5 2 -5 -4 -2 -7 4 -15 0 -18 -9 -4 -9 -2 -13 5 -8
6 4 5 -4 -2 -17 -7 -13 -14 -26 -14 -29 -4 -22 -18 -50 -23 -46 -4 2 -8 -9 -8
-26 -1 -17 -5 -33 -10 -37 -5 -3 -9 -10 -9 -16 -1 -30 -28 -85 -43 -85 -12 0
-13 -3 -5 -8 16 -10 5 -52 -13 -52 -8 0 -14 -4 -14 -10 0 -5 5 -10 11 -10 5 0
7 -5 4 -10 -4 -6 -10 -8 -15 -5 -5 3 -12 0 -16 -6 -4 -7 -3 -9 4 -5 6 3 13 2
17 -4 3 -5 0 -10 -8 -10 -10 0 -13 -7 -10 -20 3 -12 0 -20 -8 -20 -7 0 -9 -3
-6 -7 4 -3 2 -12 -4 -20 -6 -7 -8 -13 -3 -13 4 0 -1 -7 -12 -16 -10 -8 -12
-12 -4 -8 13 7 13 5 2 -9 -8 -9 -11 -21 -7 -27 3 -5 0 -12 -7 -15 -7 -3 -14
-17 -15 -31 0 -15 -6 -30 -13 -34 -7 -4 12 -6 41 -4 29 3 54 5 55 7 1 1 79
200 174 442 95 242 174 446 177 453 4 8 -8 12 -41 12 -35 0 -48 -4 -56 -20z"/>
<path d="M1198 2625 c-50 -18 -110 -60 -100 -70 4 -5 1 -5 -5 -1 -7 4 -13 23
-13 42 l0 34 -54 0 c-48 0 -54 -2 -51 -19 2 -13 -7 -24 -30 -37 -22 -11 -31
-23 -27 -32 4 -11 1 -13 -9 -7 -8 5 -7 1 4 -12 19 -22 22 -33 6 -33 -5 0 -7 5
-4 10 3 6 1 10 -4 10 -14 0 -14 -17 -1 -25 6 -3 10 -11 10 -16 0 -6 -4 -8 -10
-4 -5 3 -5 -7 1 -25 8 -22 8 -34 0 -43 -8 -10 -7 -17 1 -25 7 -7 9 -12 5 -12
-4 0 0 -15 8 -32 l16 -33 -21 25 c-18 22 -20 22 -11 3 6 -12 8 -29 5 -37 -3
-9 -1 -16 5 -16 6 0 11 -5 11 -11 0 -5 -4 -8 -9 -5 -5 3 -15 -2 -22 -12 -12
-15 -12 -16 2 -5 16 13 29 8 29 -9 0 -5 -4 -6 -10 -3 -6 3 -10 -4 -10 -17 0
-19 2 -20 11 -8 8 11 9 9 4 -10 -4 -14 -11 -29 -16 -34 -5 -6 -9 -15 -9 -20 0
-6 4 -4 10 4 5 8 12 11 16 7 4 -3 1 -14 -6 -22 -10 -12 -10 -21 -2 -40 8 -18
8 -26 0 -31 -6 -4 -8 -3 -5 3 4 6 -1 17 -11 24 -15 12 -15 12 -5 -1 6 -8 13
-19 15 -25 1 -5 9 -9 16 -9 6 1 12 -2 12 -7 0 -5 -9 -9 -19 -9 -11 0 -22 -4
-25 -9 -4 -5 4 -7 16 -5 13 2 17 2 11 -2 -7 -3 -13 -11 -13 -16 0 -6 3 -8 7
-5 3 4 15 -1 26 -10 19 -18 20 -17 8 5 -12 23 -12 23 12 8 13 -9 27 -13 32 -9
4 5 5 -1 1 -12 -7 -20 -7 -20 12 0 10 11 15 22 11 23 -14 6 -10 23 4 21 6 -1
26 -1 42 0 l30 1 0 208 0 209 29 37 c22 29 31 35 37 25 7 -11 9 -10 9 3 0 22
13 29 30 16 12 -8 11 -8 -5 -3 -14 4 -17 3 -9 -5 13 -13 46 -2 37 14 -4 8 -2
8 7 -1 7 -6 18 -10 24 -9 6 2 8 1 4 -1 -23 -13 13 -64 43 -62 8 0 6 4 -6 9
-23 10 -5 13 20 3 15 -5 14 -8 -6 -19 -13 -7 -18 -13 -11 -14 9 0 11 -7 7 -20
-5 -14 -2 -20 9 -20 9 0 16 -4 16 -10 0 -5 -5 -10 -12 -10 -6 0 -3 -7 8 -16
10 -8 14 -13 8 -10 -17 8 -13 -28 5 -42 15 -11 15 -12 0 -7 -9 3 -22 -1 -29
-10 -11 -13 -11 -15 -1 -13 8 2 15 -5 16 -15 3 -14 -1 -17 -13 -12 -13 5 -14
3 -5 -6 16 -16 36 -1 30 22 -3 11 -1 19 4 19 5 0 8 -13 7 -29 -1 -16 -7 -29
-13 -28 -5 1 -9 -10 -7 -25 2 -23 -1 -27 -15 -21 -15 5 -15 3 2 -10 16 -13 18
-18 8 -28 -16 -16 -17 -29 -3 -29 6 0 9 5 8 11 -2 6 4 14 12 16 12 4 12 3 2
-5 -8 -5 -13 -12 -13 -16 3 -23 0 -36 -8 -32 -5 4 -8 -2 -6 -11 2 -10 4 -22 4
-26 1 -5 5 -5 11 -2 7 4 7 -2 1 -19 -11 -29 8 -51 44 -51 22 -1 22 0 8 25 -13
21 -13 22 0 8 16 -21 33 -23 43 -6 4 6 3 8 -4 4 -6 -3 -13 -3 -15 1 -3 5 16 9
41 11 25 1 48 5 51 8 11 11 3 416 -9 459 -16 56 -63 113 -114 136 -48 22 -125
23 -178 4z m-228 -100 c0 -7 -30 -13 -34 -7 -3 4 4 9 15 9 10 1 19 0 19 -2z
m351 -22 c-12 -20 -14 -14 -5 12 4 9 9 14 11 11 3 -2 0 -13 -6 -23z m-32 -24
c-15 -9 -32 -2 -24 11 3 5 13 6 21 3 12 -4 13 -8 3 -14z m-329 7 c0 -2 -7 -7
-16 -10 -8 -3 -12 -2 -9 4 6 10 25 14 25 6z m10 -20 c0 -2 -7 -7 -16 -10 -8
-3 -12 -2 -9 4 6 10 25 14 25 6z m-36 -32 c3 -8 2 -12 -4 -9 -6 3 -10 10 -10
16 0 14 7 11 14 -7z m399 0 c8 -8 -3 -34 -15 -34 -6 0 -6 6 1 14 9 11 9 15 -1
19 -7 3 -8 6 -2 6 6 1 13 -2 17 -5z m-363 -29 c0 -7 -30 -13 -34 -7 -3 4 4 9
15 9 10 1 19 0 19 -2z m400 1 c0 -2 -7 -7 -16 -10 -8 -3 -12 -2 -9 4 6 10 25
14 25 6z m-436 -32 c9 -24 2 -26 -12 -4 -7 11 -8 20 -3 20 5 0 12 -7 15 -16z
m432 -27 c1 -9 -2 -15 -7 -11 -5 3 -7 9 -4 14 3 4 0 11 -5 13 -6 3 -5 4 1 3 7
-1 13 -10 15 -19z m-11 -27 c3 -6 -1 -7 -9 -4 -18 7 -21 14 -7 14 6 0 13 -4
16 -10z m-382 -110 c7 -29 1 -24 -17 11 -12 23 -12 28 -2 20 8 -7 16 -21 19
-31z m374 -39 c0 -11 -5 -18 -9 -15 -4 3 -5 11 -1 19 7 21 12 19 10 -4z m-377
-6 c0 -7 -30 -13 -34 -7 -3 4 4 9 15 9 10 1 19 0 19 -2z m-31 -75 c11 -24 11
-24 -3 -6 -9 11 -16 24 -16 30 0 12 5 7 19 -24z m27 12 c-3 -3 0 -12 6 -21 10
-13 10 -14 -2 -4 -16 15 -23 46 -8 37 5 -3 7 -9 4 -12z m399 -12 c-3 -5 -12
-10 -18 -10 -7 0 -6 4 3 10 19 12 23 12 15 0z m-18 -26 c-3 -3 -12 -4 -19 -1
-8 3 -5 6 6 6 11 1 17 -2 13 -5z m-381 -30 c1 -9 0 -13 -4 -10 -3 4 -7 14 -8
22 -1 9 0 13 4 10 3 -4 7 -14 8 -22z m382 -21 c-2 -10 3 -17 10 -15 6 1 12 -2
12 -8 0 -5 -4 -10 -8 -10 -15 0 -30 22 -25 36 7 20 14 17 11 -3z m-342 -15 c3
-4 -1 -5 -10 -4 -8 1 -18 5 -22 8 -3 4 1 5 10 4 8 -1 18 -5 22 -8z"/>
<path d="M570 2596 c-36 -19 -68 -32 -72 -29 -5 2 -8 0 -8 -5 0 -9 -158 -90
-171 -88 -4 1 -16 -8 -28 -18 -12 -11 -21 -16 -21 -12 0 4 -7 0 -16 -9 -9 -9
-23 -14 -31 -11 -8 3 -12 2 -9 -2 5 -8 -109 -69 -116 -61 -2 1 -13 -5 -25 -16
-18 -15 -20 -22 -10 -34 8 -10 8 -13 1 -8 -7 4 -15 0 -18 -9 -3 -8 -11 -12
-17 -8 -8 5 -9 3 -4 -5 5 -9 10 -10 18 -2 6 6 15 11 19 11 12 0 10 -34 -2 -46
-7 -7 -6 -11 4 -11 8 0 13 4 10 8 -2 4 0 10 6 14 5 3 10 -2 10 -12 0 -14 2
-15 9 -5 6 10 10 8 14 -9 5 -20 8 -21 23 -8 16 12 17 12 11 -5 -6 -15 -5 -16
6 -8 18 15 39 -1 31 -24 -4 -14 -3 -15 4 -5 13 18 67 1 67 -22 0 -8 4 -19 8
-24 5 -4 7 -2 5 6 -6 25 22 23 33 -3 7 -14 16 -23 22 -19 5 3 3 9 -4 14 -10 6
-10 9 -2 9 6 0 15 -5 18 -10 8 -13 78 -45 105 -49 5 0 17 -13 25 -28 9 -16 14
-20 11 -11 -3 12 -1 15 9 11 8 -3 12 -10 8 -16 -4 -7 0 -8 11 -4 14 6 17 3 12
-9 -5 -14 -4 -15 8 -5 12 10 18 9 33 -6 10 -10 24 -18 31 -19 28 -2 33 -4 28
-13 -3 -5 5 -8 19 -7 22 1 25 5 25 41 l0 41 -247 123 -248 123 55 28 c30 15
58 26 63 23 4 -2 7 0 7 5 0 9 69 44 84 42 5 -1 12 2 15 7 12 17 153 83 164 76
6 -3 7 -1 3 6 -5 7 3 13 23 17 17 4 31 10 31 14 0 4 11 12 25 18 21 10 25 19
25 52 0 49 -5 49 -90 6z"/>
<path d="M2374 2596 c4 -29 2 -33 -15 -29 -10 3 -19 13 -20 22 0 10 -2 11 -6
3 -2 -6 -9 -10 -14 -6 -5 3 -9 1 -9 -5 0 -5 10 -13 21 -16 12 -4 18 -10 13
-14 -14 -9 -18 -75 -5 -67 7 5 11 -2 11 -16 0 -18 -2 -20 -10 -8 -5 8 -10 10
-10 4 0 -6 8 -18 17 -25 11 -10 14 -10 9 -1 -4 6 -2 12 3 12 13 0 14 -2 1 -36
-9 -22 -8 -25 3 -16 8 7 18 8 22 4 5 -4 5 2 1 13 -5 15 -4 17 5 8 13 -13 3
-37 -12 -28 -5 4 -9 1 -9 -5 0 -6 11 -15 25 -20 14 -5 25 -12 25 -15 0 -3 -17
2 -37 10 -24 9 -32 10 -23 2 9 -6 15 -22 14 -34 -1 -12 2 -20 7 -18 4 3 10 1
14 -5 4 -6 11 -7 17 -4 7 4 8 2 4 -5 -4 -6 -12 -9 -17 -6 -16 10 -10 -6 9 -23
10 -10 12 -13 5 -8 -8 5 -16 6 -20 2 -3 -3 -1 -6 5 -6 7 0 12 -7 12 -16 0 -8
5 -12 10 -9 6 3 10 1 10 -4 0 -6 -6 -11 -12 -11 -9 0 -8 -3 2 -9 8 -6 18 -7
24 -4 5 4 6 1 1 -7 -6 -10 -3 -12 11 -7 18 7 18 6 2 -6 -10 -8 -14 -18 -10
-22 4 -5 1 -5 -6 -1 -7 4 -10 11 -7 16 3 5 1 11 -4 14 -5 4 -12 2 -15 -3 -4
-5 -2 -12 4 -16 6 -4 7 -11 4 -17 -4 -6 -3 -9 2 -5 5 3 20 -1 34 -9 l25 -15
-24 7 c-15 4 -21 2 -17 -4 3 -6 3 -12 -1 -15 -5 -2 -2 -2 4 -1 8 2 11 -7 9
-26 -2 -17 1 -27 6 -24 5 3 9 0 7 -7 -4 -33 1 -40 24 -34 17 5 19 4 7 -4 -14
-10 -7 -15 13 -12 5 1 5 -4 2 -10 -5 -8 -10 -8 -18 0 -14 14 -27 14 -27 0 0
-5 4 -8 9 -4 6 3 14 -3 20 -12 6 -10 11 -12 11 -5 0 6 5 12 11 12 5 0 8 -4 4
-9 -6 -10 27 -7 44 3 5 4 12 0 15 -6 4 -9 5 -8 5 2 -3 35 2 40 35 40 l34 0 46
138 c60 177 81 223 101 216 8 -4 15 -8 15 -11 0 -3 -6 -3 -14 0 -8 3 -17 -1
-20 -9 -10 -25 -7 -27 12 -13 15 12 16 12 5 -2 -7 -8 -10 -26 -7 -40 13 -59
14 -80 1 -73 -7 4 -8 3 -4 -2 5 -5 13 -9 19 -9 6 0 12 -8 14 -17 3 -23 29 -49
40 -40 5 4 2 -1 -5 -10 -14 -19 -26 -25 -16 -9 3 5 1 12 -4 15 -5 4 -8 -2 -7
-11 2 -11 11 -18 24 -17 12 1 19 -3 16 -8 -3 -5 0 -15 6 -23 7 -8 9 -15 6 -15
-4 0 -2 -9 4 -20 8 -16 8 -18 -4 -14 -9 3 -14 11 -13 16 1 6 -4 12 -11 13 -7
2 -8 1 -2 -2 5 -2 8 -8 5 -13 -3 -5 2 -16 11 -24 9 -9 11 -16 4 -16 -6 0 2
-11 17 -24 15 -13 33 -21 38 -17 6 5 20 7 32 6 17 -1 20 1 12 11 -7 8 -6 14 2
20 7 4 9 3 6 -3 -4 -6 0 -13 8 -16 9 -4 12 -1 9 8 -4 10 4 15 28 17 29 3 35 8
46 43 7 22 50 153 94 290 44 138 83 256 85 263 4 9 -10 12 -52 12 -48 0 -58
-3 -62 -20 -5 -19 -16 -25 -37 -21 -5 1 -6 -6 -2 -15 6 -14 4 -15 -9 -4 -9 7
-15 9 -14 4 4 -23 -2 -26 -17 -8 -14 18 -15 18 -4 -4 7 -15 17 -21 26 -18 9 3
12 1 9 -4 -3 -6 -13 -10 -21 -10 -8 0 -12 -5 -9 -11 4 -5 -1 -20 -12 -31 -18
-21 -18 -21 7 -8 23 12 24 12 12 -3 -8 -9 -10 -22 -6 -28 4 -7 3 -10 -2 -7 -5
3 -18 2 -29 -3 -17 -6 -17 -8 -2 -8 24 -1 21 -20 -5 -31 -21 -8 -21 -9 -3 -10
17 0 17 -2 5 -10 -14 -9 -7 -14 13 -11 5 1 6 -3 3 -8 -4 -5 -2 -12 4 -16 5 -3
10 -11 10 -17 0 -5 -9 0 -20 13 -11 14 -19 18 -20 11 0 -7 -3 -11 -7 -9 -5 3
-8 -13 -8 -34 -1 -32 2 -38 15 -34 12 5 12 4 3 -6 -10 -10 -16 -9 -29 2 -16
13 -16 12 -5 -9 7 -13 17 -20 24 -16 7 4 8 3 4 -1 -12 -13 -34 -14 -34 -1 -1
6 -28 95 -60 198 l-58 188 -48 0 c-41 0 -50 -3 -54 -21 -4 -13 -12 -19 -23
-16 -10 2 -17 -1 -17 -9 0 -8 5 -14 10 -14 6 0 8 -2 5 -5 -8 -9 -38 6 -32 16
3 5 0 9 -6 9 -7 0 -10 -7 -6 -15 3 -8 -2 -19 -12 -24 -9 -5 -13 -13 -9 -17 4
-4 14 1 23 12 14 18 15 18 4 -4 -6 -12 -8 -28 -4 -35 6 -9 4 -9 -8 0 -15 13
-28 8 -28 -11 0 -6 5 -4 10 4 8 13 10 12 10 -2 0 -10 -4 -18 -9 -18 -5 0 -8
-8 -7 -17 0 -11 -5 -17 -13 -15 -12 3 -12 1 -1 -13 9 -11 15 -13 20 -5 5 8 9
6 13 -5 4 -9 3 -14 -2 -10 -5 3 -12 -1 -14 -7 -4 -10 -6 -10 -6 0 -1 6 -5 12
-11 12 -5 0 -6 -7 -3 -17 5 -12 3 -14 -8 -8 -10 7 -9 2 3 -17 16 -24 16 -26 0
-21 -12 3 -17 -3 -18 -21 -1 -18 2 -23 15 -19 13 4 14 3 1 -5 -10 -8 -18 -8
-27 0 -11 8 -12 7 -7 -7 6 -14 4 -16 -6 -10 -8 5 -11 4 -6 -3 4 -6 14 -8 23
-5 11 4 14 3 9 -5 -4 -7 -15 -12 -24 -12 -10 0 -13 -3 -7 -8 11 -7 14 -27 5
-36 -3 -3 -30 87 -60 199 l-55 205 -58 0 -57 0 4 -34z m11 -55 c3 -5 2 -12 -3
-15 -5 -3 -9 1 -9 9 0 17 3 19 12 6z m345 -15 c0 -3 -4 -8 -10 -11 -5 -3 -10
-1 -10 4 0 6 5 11 10 11 6 0 10 -2 10 -4z m-324 -60 c1 -7 -4 -13 -12 -13 -9
0 -11 4 -4 12 5 7 8 15 5 18 -3 4 -2 5 2 2 4 -3 8 -11 9 -19z m304 -2 c0 -8
-19 -13 -24 -6 -3 5 1 9 9 9 8 0 15 -2 15 -3z m115 -24 c3 -5 1 -10 -4 -10 -6
0 -11 5 -11 10 0 6 2 10 4 10 3 0 8 -4 11 -10z m249 -38 c3 -5 -1 -9 -9 -9 -8
0 -12 4 -9 9 3 4 7 8 9 8 2 0 6 -4 9 -8z m-631 -27 c4 -8 3 -16 -1 -19 -4 -3
-9 4 -9 15 -2 23 3 25 10 4z m-33 -46 c0 -4 -7 -6 -15 -3 -8 4 -15 10 -15 15
0 4 7 6 15 3 8 -4 15 -10 15 -15z m617 -3 c-3 -7 0 -20 6 -27 10 -11 9 -11 -5
0 -15 11 -15 41 -1 41 3 0 3 -6 0 -14z m-162 -15 c3 -5 2 -12 -3 -15 -5 -3 -9
1 -9 9 0 17 3 19 12 6z m-398 -36 c5 -4 2 -5 -6 0 -10 6 -12 2 -6 -16 4 -13 6
-22 4 -19 -2 3 -12 14 -22 26 -16 20 -16 21 3 19 11 -1 23 -5 27 -10z m383
-15 c0 -5 -7 -7 -15 -4 -8 4 -15 8 -15 10 0 2 7 4 15 4 8 0 15 -4 15 -10z
m-15 -19 c3 -5 0 -13 -6 -17 -7 -4 -9 -3 -5 4 3 5 0 13 -6 15 -9 4 -10 6 -1 6
6 1 14 -3 18 -8z m48 -14 c3 -8 -3 -13 -18 -13 -13 0 -21 4 -19 8 3 5 10 6 15
3 5 -4 9 -1 9 4 0 15 7 14 13 -2z m-403 -3 c0 -8 -19 -13 -24 -6 -3 5 1 9 9 9
8 0 15 -2 15 -3z m150 -20 c0 -8 -19 -13 -24 -6 -3 5 1 9 9 9 8 0 15 -2 15 -3z
m237 -26 c-3 -8 -6 -5 -6 6 -1 11 2 17 5 13 3 -3 4 -12 1 -19z m37 6 c3 -8 2
-12 -4 -9 -6 3 -10 10 -10 16 0 14 7 11 14 -7z m-410 -2 c3 -5 -1 -9 -9 -9 -8
0 -12 4 -9 9 3 4 7 8 9 8 2 0 6 -4 9 -8z m11 -31 c3 -5 2 -12 -3 -15 -5 -3 -9
1 -9 9 0 17 3 19 12 6z m419 -30 c3 -5 0 -14 -8 -20 -10 -9 -15 -8 -19 3 -4
11 -1 13 10 9 11 -4 14 -2 9 5 -4 7 -5 12 -2 12 3 0 7 -4 10 -9z m-437 -38 c0
-9 -4 -10 -14 -2 -7 6 -13 12 -13 14 0 1 6 2 13 2 8 0 14 -6 14 -14z m40 -9
c-3 -3 -12 -4 -19 -1 -8 3 -5 6 6 6 11 1 17 -2 13 -5z m-30 -30 c-3 -3 -12 -4
-19 -1 -8 3 -5 6 6 6 11 1 17 -2 13 -5z m440 -47 c-3 -11 -23 -7 -19 4 1 5 -2
9 -8 9 -5 0 -10 5 -10 10 0 6 8 5 20 -2 11 -7 19 -17 17 -21z m-377 19 c0 -2
-7 -7 -16 -10 -8 -3 -12 -2 -9 4 6 10 25 14 25 6z m20 -11 c0 -2 -10 -9 -22
-15 -22 -11 -22 -10 -4 4 21 17 26 19 26 11z"/>
<path d="M4190 2599 c0 -18 -4 -28 -10 -24 -6 4 -9 1 -8 -7 2 -7 -3 -12 -10
-10 -8 1 -11 -2 -7 -9 5 -7 11 -7 18 0 7 7 16 3 29 -12 11 -12 17 -15 13 -7
-4 8 1 6 9 -4 9 -11 16 -17 16 -13 0 4 10 2 23 -5 12 -7 24 -13 27 -13 3 0 47
-21 97 -45 66 -32 96 -52 103 -70 8 -21 10 -21 6 -3 -3 15 0 20 10 16 8 -3 12
-13 9 -23 -3 -10 0 -17 9 -17 9 0 12 6 8 16 -5 14 -3 14 11 2 14 -11 15 -17 5
-30 -8 -9 -3 -8 11 4 23 19 24 19 17 1 -5 -15 -4 -17 8 -7 11 10 17 8 29 -10
10 -13 22 -19 31 -16 24 9 20 -20 -4 -33 -11 -6 -20 -7 -20 -3 0 4 -4 3 -8 -3
-12 -19 -92 -55 -104 -48 -7 5 -8 3 -3 -6 6 -10 4 -12 -9 -7 -9 4 -15 3 -12
-1 7 -12 -103 -64 -116 -56 -6 4 -8 3 -5 -3 6 -9 -10 -18 -37 -21 -5 0 -12 -4
-15 -9 -8 -11 -103 -57 -113 -55 -5 1 -8 -7 -8 -18 0 -11 -6 -20 -12 -20 -10
0 -9 -3 1 -9 7 -5 11 -13 8 -18 -3 -5 -2 -15 2 -22 7 -10 13 -11 30 -2 12 7
27 9 33 5 6 -4 8 -3 5 3 -6 9 9 21 33 28 3 0 25 12 50 25 62 33 139 69 147 69
3 0 9 3 12 8 3 4 68 40 144 78 l138 70 -3 38 -3 38 -282 145 c-156 79 -287
144 -293 144 -5 0 -10 -14 -10 -31z"/>
<path d="M926 2588 c5 -8 2 -9 -9 -5 -10 3 -17 2 -17 -3 0 -12 20 -13 38 -1
11 7 10 9 -3 14 -11 5 -14 3 -9 -5z"/>
<path d="M4155 2590 c-3 -6 1 -7 9 -4 18 7 21 14 7 14 -6 0 -13 -4 -16 -10z"/>
<path d="M3653 2563 c4 -3 1 -13 -6 -22 -11 -14 -10 -14 5 -2 16 12 16 31 1
31 -4 0 -3 -3 0 -7z"/>
<path d="M2305 2551 c-6 -11 13 -26 22 -17 4 3 0 6 -8 6 -11 0 -11 2 1 10 9 6
10 10 3 10 -6 0 -14 -4 -18 -9z"/>
<path d="M3035 2510 c-3 -5 -1 -10 4 -10 6 0 11 5 11 10 0 6 -2 10 -4 10 -3 0
-8 -4 -11 -10z"/>
<path d="M4198 2503 c7 -3 16 -2 19 1 4 3 -2 6 -13 5 -11 0 -14 -3 -6 -6z"/>
<path d="M4234 2499 c-4 -7 -3 -9 4 -5 5 3 13 0 15 -6 4 -9 6 -10 6 -1 1 17
-16 25 -25 12z"/>
<path d="M4290 2481 c0 -6 4 -13 10 -16 6 -3 7 1 4 9 -7 18 -14 21 -14 7z"/>
<path d="M3626 2462 c-3 -5 1 -9 9 -9 8 0 12 4 9 9 -3 4 -7 8 -9 8 -2 0 -6 -4
-9 -8z"/>
<path d="M4353 2445 c0 -7 6 -11 14 -8 7 3 13 6 13 8 0 2 -6 5 -13 8 -8 3 -14
-1 -14 -8z"/>
<path d="M4380 2420 c18 -12 30 -13 30 -2 0 4 -10 9 -22 9 -18 2 -20 0 -8 -7z"/>
<path d="M4427 2409 c7 -7 15 -10 18 -7 3 3 -2 9 -12 12 -14 6 -15 5 -6 -5z"/>
<path d="M4461 2384 c0 -11 3 -14 6 -6 3 7 2 16 -1 19 -3 4 -6 -2 -5 -13z"/>
<path d="M4587 2327 c-3 -8 1 -14 8 -14 7 0 11 6 8 14 -3 7 -6 13 -8 13 -2 0
-5 -6 -8 -13z"/>
<path d="M2975 2311 c-3 -5 -2 -12 3 -15 5 -3 9 1 9 9 0 17 -3 19 -12 6z"/>
<path d="M3570 2299 c0 -5 5 -7 10 -4 6 3 10 8 10 11 0 2 -4 4 -10 4 -5 0 -10
-5 -10 -11z"/>
<path d="M39 2253 c-13 -16 -12 -17 4 -4 9 7 17 15 17 17 0 8 -8 3 -21 -13z"/>
<path d="M156 2193 c-6 -14 -5 -15 5 -6 7 7 10 15 7 18 -3 3 -9 -2 -12 -12z"/>
<path d="M213 2166 c0 -15 22 -15 34 0 4 5 4 6 -1 2 -5 -4 -14 -3 -21 2 -8 7
-12 5 -12 -4z"/>
<path d="M331 2104 c0 -11 3 -14 6 -6 3 7 2 16 -1 19 -3 4 -6 -2 -5 -13z"/>
<path d="M2840 2105 c0 -2 10 -10 23 -16 20 -11 21 -11 8 4 -13 16 -31 23 -31
12z"/>
<path d="M380 2082 c0 -5 7 -9 15 -9 8 0 12 4 9 9 -3 4 -9 8 -15 8 -5 0 -9 -4
-9 -8z"/>
<path d="M421 2075 c0 -5 6 -18 14 -29 13 -18 14 -18 12 2 0 11 -4 19 -8 16
-4 -2 -10 2 -12 8 -3 7 -6 9 -6 3z"/>
<path d="M4157 2009 c7 -7 15 -10 18 -7 3 3 -2 9 -12 12 -14 6 -15 5 -6 -5z"/>
</g>
</svg>
